<svg version="1.2" xmlns="http://www.w3.org/2000/svg" viewBox="0 0 24 24" width="16" height="16"><defs><clipPath clipPathUnits="userSpaceOnUse" id="cp1"><path d="m-1008-618h1440v1340h-1440z"/></clipPath></defs><style>.a{fill:#c6cdd9}</style><g clip-path="url(#cp1)"><path class="a" d="m23.2 12.3c0 3.4-1.4 6.7-4 9l-3.5-4.2c1.3-1.2 2.1-2.9 2.1-4.8 0-3.4-2.7-6.3-6.1-6.4v-5.5c6.4 0.2 11.5 5.5 11.5 11.9z"/><path class="a" d="m18.3 21.2c-2 1.5-4.5 2.4-7 2.4-3.2 0-6.2-1.4-8.4-3.8l3.7-3.1c1.2 1.3 2.8 2.1 4.7 2.1 1.5 0 2.8-0.5 3.9-1.3z"/><path class="a" d="m7.8 6.9c-1.4 0.9-2.4 2.3-2.8 4l-4-0.7c0.6-2.9 2.3-5.3 4.8-6.8z"/><path class="a" d="m6.1 16.2l-3.1 2.6c-1.4-1.8-2.2-4.1-2.2-6.5 0-0.5 0-0.9 0.1-1.5l4 0.8q-0.1 0.3 0 0.7c0 1.5 0.4 2.8 1.2 3.9z"/><path class="a" d="m11 2.5v3.4c-0.9 0-1.8 0.3-2.6 0.7l-1.7-3c1.3-0.7 2.8-1.1 4.3-1.1"/></g></svg>