<svg version="1.2" xmlns="http://www.w3.org/2000/svg" viewBox="0 0 26 27" width="16" height="16"><defs><clipPath clipPathUnits="userSpaceOnUse" id="cp1"><path d="m-547-717h1440v1340h-1440z"/></clipPath><clipPath clipPathUnits="userSpaceOnUse" id="cp2"><path d="m0.09 0.93h25.6v25.49h-25.6z"/></clipPath></defs><style>.a{fill:#7dd9ae}</style><g clip-path="url(#cp1)"><path  d="inherit"/><g clip-path="url(#cp2)"><path fill-rule="evenodd" class="a" d="m24.6 22c0 0.8-0.7 1.4-1.5 1.4h-0.1c-0.7 0-1.2-0.4-1.4-1.1v-2.6h3zm-11 1.5c0.1-0.2 0.1-0.4 0-0.6l-1-1.5c0.1-0.1 0.1-0.1 0.1-0.2l1.7-0.5c0.3 0 0.4-0.2 0.4-0.5v-0.3h1.9c0.4 0 0.6-0.2 0.6-0.5 0-0.4-0.2-0.6-0.6-0.6h-1.9v-0.7c0-0.3-0.1-0.5-0.4-0.6l-1.7-0.4c-0.1 0-0.1-0.1-0.2-0.2l0.2-0.3h4c0.3 0 0.5-0.2 0.5-0.5 0-0.4-0.2-0.6-0.5-0.6h-3.4l0.1-0.1c0.1-0.2 0.1-0.5-0.1-0.6l-1.4-1.5h4.8c0.3 0 0.5-0.2 0.5-0.5 0-0.3-0.2-0.5-0.5-0.5h-7.7c0-0.2-0.2-0.4-0.4-0.4h-2.2c-0.3 0-0.5 0.2-0.6 0.4l-0.4 1.7c-0.1 0.1-0.1 0.1-0.3 0.1v-10.7q0-0.8-0.4-1.4h14.5c0.7 0 1.3 0.6 1.3 1.3v18.7c0 0.1 0 0.2 0.1 0.3v0.1q0.1 0.6 0.4 1.1zm-4.2-10.1h1.7l-1.3 0.8c-0.1-0.1-0.2-0.1-0.3-0.1zm2.2 8.3l0.9 1.5-0.9 0.9-1.4-0.9c-0.2-0.1-0.4-0.1-0.5 0q-0.3 0.2-0.7 0.3c-0.1 0.1-0.3 0.2-0.3 0.4l-0.4 1.6h-1.3l-0.4-1.6c-0.1-0.2-0.2-0.3-0.4-0.4-0.2-0.1-0.5-0.2-0.6-0.3-0.2-0.1-0.4 0-0.6 0l-1.4 0.9-0.9-1 0.8-1.4c0.1-0.1 0.1-0.3 0-0.5-0.1-0.2-0.2-0.4-0.3-0.6 0-0.2-0.2-0.3-0.3-0.3l-1.6-0.4v-1.3l1.6-0.4c0.1-0.1 0.3-0.2 0.3-0.4q0.1-0.3 0.3-0.6c0.1-0.2 0.1-0.4 0-0.6l-0.8-1.3 0.9-1 1.4 0.9c0.2 0.1 0.4 0.1 0.5 0q0.3-0.2 0.7-0.3c0.1 0 0.3-0.2 0.3-0.3l0.4-1.6h1.3l0.4 1.6c0.1 0.1 0.2 0.3 0.4 0.3q0.3 0.1 0.6 0.3c0.2 0.1 0.4 0.1 0.6 0l1.4-0.9 0.9 1-0.8 1.3c-0.1 0.2-0.1 0.4 0 0.6q0.2 0.3 0.3 0.6c0 0.2 0.2 0.3 0.3 0.4l1.6 0.4v1.3l-1.6 0.4c-0.1 0-0.3 0.1-0.3 0.3q-0.1 0.3-0.3 0.7-0.1 0-0.1 0.1v0.1c0 0.1 0 0.1 0 0.2zm-10.3-16v-2.2c0-0.8 0.6-1.4 1.4-1.4h0.1c0.8 0 1.4 0.6 1.4 1.4v2.2zm24 13.1h-3.5v-15.5c0-1.2-1-2.3-2.4-2.3h-16.6c-1.4 0-2.5 1.1-2.5 2.5v2.8c0 0.3 0.2 0.5 0.5 0.5h3.5v6.7l-0.4-0.3c-0.2-0.1-0.5-0.1-0.6 0.1l-1.6 1.5c-0.1 0.2-0.2 0.5 0 0.7l0.9 1.5c0 0.1 0 0.1-0.1 0.2l-1.7 0.4c-0.3 0.1-0.4 0.3-0.4 0.6v2.1c0 0.3 0.1 0.5 0.4 0.5l1.8 0.5c0 0.1 0 0.1 0.1 0.2l-0.9 1.5c-0.1 0.2-0.1 0.4 0 0.6l1.6 1.6c0.1 0.1 0.4 0.2 0.6 0l1.6-1c0.1 0.1 0.1 0.1 0.2 0.2l0.4 1.7c0.1 0.2 0.3 0.4 0.6 0.4h2c0.3 0 0.5-0.2 0.5-0.4l0.5-1.7c0.1-0.1 0.1-0.1 0.2-0.2l1.5 1c0.2 0.1 0.5 0.1 0.7-0.1l0.5-0.6h10.7c1.4 0 2.5-1.1 2.5-2.5v-2.8c-0.1-0.2-0.3-0.4-0.6-0.4z"/></g><path fill-rule="evenodd" class="a" d="m7.5 21.6c-1.3 0-2.5-1.1-2.5-2.4 0-1.3 1.2-2.4 2.5-2.4 1.3 0 2.4 1.1 2.4 2.4 0 1.3-1.1 2.4-2.4 2.4zm-3.5-2.4c0 1.9 1.6 3.4 3.5 3.4 1.9 0 3.5-1.5 3.5-3.4 0-1.9-1.6-3.5-3.5-3.5-1.9 0-3.5 1.6-3.5 3.5z"/><path class="a" d="m16.8 5.7c0.3 0 0.5 0.2 0.5 0.5 0 0.3-0.2 0.5-0.5 0.5h-7.8c-0.3 0-0.6-0.2-0.6-0.5 0-0.3 0.3-0.5 0.6-0.5h7.7z"/><path class="a" d="m16.8 9c0.3 0 0.5 0.2 0.5 0.5 0 0.3-0.2 0.5-0.5 0.5h-7.8c-0.3 0-0.6-0.2-0.6-0.5 0-0.3 0.3-0.5 0.6-0.5h7.7z"/></g></svg>