<svg version="1.2" xmlns="http://www.w3.org/2000/svg" viewBox="0 0 36 21" width="16" height="16"><defs><clipPath clipPathUnits="userSpaceOnUse" id="cp1"><path d="m-22-551h390v844h-390z"/></clipPath></defs><style>.a{fill:#c6cdd9}</style><g clip-path="url(#cp1)"><path class="a" d="m23 9.2c0.5 0.6 0.5 1.5 0 2-0.6 0.6-1.5 0.6-2.1 0-0.5-0.5-0.5-1.4 0-2 0.6-0.6 1.5-0.6 2.1 0"/><path class="a" d="m24 6.2c0.5-0.6 1.4-0.6 2 0 0.5 0.5 0.5 1.4 0 2-0.6 0.6-1.5 0.6-2 0-0.6-0.6-0.6-1.5 0-2"/><path class="a" d="m29 9.2c0.6 0.6 0.6 1.5 0 2-0.5 0.6-1.4 0.6-2 0-0.6-0.5-0.6-1.4 0-2 0.6-0.6 1.5-0.6 2 0"/><path class="a" d="m24 12.2c0.5-0.5 1.4-0.5 2 0 0.5 0.6 0.5 1.5 0 2.1-0.6 0.5-1.5 0.5-2 0-0.6-0.6-0.6-1.5 0-2.1"/><path class="a" d="m9.4 11.6h-2.8v-2.8h2.8v-2.9h2.9v2.9h2.8v2.8h-2.8v2.9h-2.9z"/><path fill-rule="evenodd" class="a" d="m25.1 0.2c5.6 0 10 4.5 10 10 0 5.5-4.4 10-10 10h-14.2c-5.6 0-10-4.5-10-10 0-5.5 4.4-10 10-10zm-14.3 1.6c-2.3 0-4.4 0.9-6 2.5-1.6 1.6-2.4 3.7-2.4 5.9 0 2.3 0.8 4.4 2.4 6 1.6 1.6 3.7 2.4 6 2.4h14.3c2.2 0 4.3-0.8 5.9-2.4 1.6-1.6 2.5-3.7 2.5-6 0-2.2-0.9-4.3-2.5-5.9-1.6-1.6-3.7-2.5-5.9-2.5z"/></g></svg>