<?xml version="1.0" encoding="UTF-8"?>
<svg id="Layer_2" data-name="Layer 2" xmlns="http://www.w3.org/2000/svg" viewBox="0 0 509.38 527.55">
  <defs>
    <style>
      .cls-1 {
        fill: #008892;
      }

      .cls-2 {
        fill: #fff;
      }

      .cls-3 {
        fill: #72dbd0;
      }

      .cls-4 {
        fill: #172c4c;
      }
    </style>
  </defs>
  <g id="Layer_1-2" data-name="Layer 1">
    <g>
      <path class="cls-2" d="m471.69,171.72v-10h37.7v-20c0-22.27-7.02-40.55-20.87-54.31-8.48-8.43-19.36-14.68-31.68-18.24-1.67-3.17-3.49-6.23-5.43-9.16h43.2V0h-250.06v60h23.81v19.95h28.16c-6.88,21.87-7.9,46.5-7.9,66.5v10.28c-1.74,1.46-3.33,3.07-4.76,4.83L0,505.56l15.57,12.71c7.12,5.82,16.1,9.02,25.29,9.02,12.07,0,23.35-5.34,30.93-14.62l34.27-41.5h138.5v56.38h250.06v-60h-44.39V171.72h21.47Z"/>
      <path class="cls-1" d="m327.93,178.47c-.14-.49-.31-.97-.5-1.44.17.48.33.96.5,1.44Z"/>
      <path class="cls-1" d="m410.22,341.9v-4.31h-20.5v-20h20.5v-8.2h-40.77v-20h40.77v-8.2h-20.5v-20h20.5v-129.28h0s-1.17-21.39,17.17-28.12l-1.42-5.29c-.43-1.54-11.15-38.65-47.79-38.65-19.97,0-32.79,7.59-40.36,23.88-8.15,17.56-9.2,42.86-9.2,62.93v3.84c11.87,6.1,20.01,18.47,20.01,32.71v247.96c1.69-.04,21.95-.82,38.4-17.24,15.39-15.37,23.2-39.6,23.2-72.04Zm-60.23-237.25c0-15.38,12.47-27.85,27.85-27.85s27.85,12.47,27.85,27.85-12.47,27.85-27.85,27.85-27.85-12.47-27.85-27.85Z"/>
      <polygon class="cls-3" points="308.61 431.18 308.61 227.41 141.29 431.18 308.61 431.18"/>
      <path class="cls-2" d="m405.7,104.65c0-15.38-12.47-27.85-27.85-27.85s-27.85,12.47-27.85,27.85,12.47,27.85,27.85,27.85,27.85-12.47,27.85-27.85Zm-40.29,0c0-6.87,5.57-12.43,12.43-12.43s12.43,5.57,12.43,12.43-5.57,12.43-12.43,12.43-12.43-5.57-12.43-12.43Z"/>
      <g>
        <path class="cls-4" d="m328.61,487.55v-187.99s.01-96.53.01-96.53v.02s-.01-17.88-.01-17.88c0-6.98-4.17-13.44-10.7-15.89-6.75-2.54-14.09-.55-18.64,5.01L28.22,502.79c8.56,6.99,21.16,5.71,28.14-2.84l40.27-48.77h211.98v36.38h-44.06v20h98.96v-20h-34.9Zm-187.32-56.38h-28.14l195.46-236.7v236.7h-167.32Z"/>
        <path class="cls-4" d="m430.22,151.72h21.47v-17.42h17.19c.33,2.34.5,4.81.5,7.42h20c0-16.75-5.04-30.25-14.97-40.13-10.33-10.27-23.46-13.82-31.51-15.04-2.07-5.09-5.61-12.41-11.15-19.71-12.46-16.43-29.37-25.64-49.12-26.84h91.98v-20h-210.06v20h23.81v19.95h20v-19.95h64.6c-25.14,1.42-43.05,13.28-53.29,35.32-9.77,21.04-11.05,49.04-11.06,71.14h3.25c2.54,0,5.01.26,7.41.75,3.3.68,6.43,1.81,9.34,3.3v-3.84c0-20.08,1.05-45.37,9.2-62.93,7.57-16.29,20.39-23.88,40.36-23.88,36.64,0,47.36,37.11,47.79,38.65l1.42,5.29c-18.34,6.74-17.17,28.11-17.17,28.11h0v129.29h-20.5v20h20.5v8.2h-40.77v20h40.77v8.2h-20.5v20h20.5v4.31c0,32.44-7.8,56.67-23.2,72.04-16.45,16.42-36.71,17.2-38.4,17.24v20c3.64-.03,30.15-1.02,52.18-22.74,3.44-3.39,6.57-7.09,9.41-11.09v70.21h-26.71v20h91.1v-20h-44.39V151.72Z"/>
      </g>
      <circle class="cls-4" cx="377.84" cy="104.65" r="12.43"/>
    </g>
  </g>
</svg>