<?xml version="1.0" encoding="UTF-8"?>
<svg width="16px" height="16px" viewBox="0 0 16 16" version="1.1" xmlns="http://www.w3.org/2000/svg" xmlns:xlink="http://www.w3.org/1999/xlink">
    <!-- Generator: Sketch 55.2 (78181) - https://sketchapp.com -->
    <title>Revelian-complete</title>
    <desc>Created with Sketch.</desc>
    <g id="Symbols" stroke="none" stroke-width="1" fill="none" fill-rule="evenodd">
        <g id="Card/-Candidate-Profile-/Resourcer-View/-_-/-Milestones-/-Revelian-complete" fill="#43C88A" fill-rule="nonzero">
            <g id="flattened" transform="translate(1.000000, 1.000000)">
                <path d="M6.43742791,13.8217309 C6.14788993,14.0657235 5.76952994,14.2128182 5.3572381,14.2128182 C4.63382199,14.2128182 4.01500493,13.7587899 3.79785714,13.1231818 C2.66686668,13.1231818 1.73971429,12.2386583 1.73971429,11.1364545 C1.73971429,11.093435 1.74120003,11.0505323 1.7441337,11.0077654 C0.767936101,10.5926654 0.0837619048,9.65308049 0.0837619048,8.55418182 C0.0837619048,7.91069145 0.318379902,7.32201007 0.708890325,6.86132424 C0.565308276,6.52123074 0.489857143,6.15311641 0.489857143,5.77572727 C0.489857143,4.61549356 1.20652788,3.59672297 2.26416233,3.14110379 C2.26242104,3.10732235 2.26157143,3.07276605 2.26157143,3.03686364 C2.26157143,1.77331425 3.3222844,0.789545455 4.63047619,0.789545455 L5.8252381,0.789545455 C6.08081426,0.789545455 6.31824277,0.855812483 6.51187624,0.975828613 C6.70119748,0.857026926 6.92984377,0.789545455 7.1747619,0.789545455 L8.36952381,0.789545455 C9.6778656,0.789545455 10.7396667,1.77342285 10.7396667,3.03686364 C10.7396667,3.07287572 10.7388015,3.10758859 10.7370311,3.14153489 C11.7944608,3.59733243 12.5107619,4.61576013 12.5107619,5.77572727 C12.5107619,6.15294361 12.4350535,6.52109391 12.2911826,6.86141032 C12.6816493,7.3220834 12.9162381,7.91073153 12.9162381,8.55418182 C12.9162381,9.68962448 12.1858027,10.6549812 11.1575212,11.0474244 C11.1573712,11.0500863 11.1572168,11.0527904 11.1570581,11.0555396 C11.1549664,11.0969392 11.1544286,11.11225 11.1544286,11.1364545 C11.1544286,12.2323847 10.1323226,13.1231818 8.98857143,13.1231818 C8.96978308,13.1292687 8.96777918,13.1299179 8.80602665,13.0908366 C8.65349096,13.755202 8.16600712,14.2128182 7.43042857,14.2128182 C7.01610574,14.2128182 6.67967598,14.0674292 6.43742791,13.8217309 Z M6.98966984,12.8122727 L7,12.8122727 L7,12.6845272 C6.99829131,12.7275909 6.99482502,12.7701937 6.98966984,12.8122727 Z M7.00061767,12.6662869 C7.01119605,13.0380123 7.15753054,13.2128182 7.43042857,13.2128182 C7.71241493,13.2128182 7.85714286,13.0258196 7.85714286,12.622 L7.85714286,12.0485113 L8.37590237,12.0679884 C8.68227035,12.0794911 8.86843153,12.0903599 8.96959965,12.1020543 C9.0157349,12.1073872 9.05146463,12.1121672 9.08344365,12.1194721 C9.62336504,12.0772721 10.0868713,11.6809654 10.1476769,11.2351853 C10.1424387,11.2352133 10.1371972,11.2352273 10.1319524,11.2352273 L10.1319524,10.2352273 C11.1225739,10.2352273 11.9162381,9.47749689 11.9162381,8.55418182 C11.9162381,7.63118014 11.1228896,6.87431818 10.1319524,6.87431818 L10.1319524,5.87431818 C10.6124042,5.87431818 11.0651907,5.99157996 11.4604594,6.19835146 C11.493666,6.06133479 11.5107619,5.91966962 11.5107619,5.77572727 C11.5107619,4.92657623 10.9074071,4.18352904 10.0444576,3.95787086 L9.54935917,3.82840442 L9.69028499,3.33644518 C9.72757556,3.20626721 9.73966667,3.13436055 9.73966667,3.03686364 C9.73966667,2.34345344 9.14188884,1.78954545 8.36952381,1.78954545 L7.1747619,1.78954545 C7.06855877,1.78954545 7.0118955,1.82956493 7.0012381,1.87802124 L7.0012381,12.6290909 L6.0012381,12.6290909 L6.0012381,12.622 L7.0012381,12.622 C7.0012381,12.6368131 7.00103038,12.6515762 7.00061767,12.6662869 Z M6.98966984,12.8122727 L6.00803507,12.8122727 C6.00361177,12.7607372 6.00100099,12.7083075 6.00023685,12.655078 C6.00090156,12.6441198 6.0012381,12.6330908 6.0012381,12.622 L6.0012381,12.622 L6.0012381,1.89522727 L5.99938095,1.89522727 C5.99938095,1.87943739 5.99970524,1.86375292 6.00034749,1.84817829 C5.99384961,1.81570774 5.95041668,1.78954545 5.8252381,1.78954545 L4.63047619,1.78954545 C3.85844754,1.78954545 3.26157143,2.34312415 3.26157143,3.03686364 C3.26157143,3.1342477 3.27354783,3.20642185 3.31074491,3.34009262 L3.44688192,3.82931227 L2.95561164,3.95785276 C2.09314138,4.18351743 1.48985714,4.92665327 1.48985714,5.77572727 C1.48985714,5.9197307 1.50685028,6.06133063 1.5398699,6.19817923 C1.93506077,5.99151484 2.38772919,5.87431818 2.86804762,5.87431818 L2.86804762,6.87431818 C1.87711044,6.87431818 1.0837619,7.63118014 1.0837619,8.55418182 C1.0837619,9.47749689 1.87742611,10.2352273 2.86804762,10.2352273 L2.86804762,11.2352273 C2.82673033,11.2352273 2.78561745,11.2343591 2.74472798,11.2326405 C2.79657416,11.7277849 3.24431322,12.1231818 3.79785714,12.1231818 C3.89368568,12.1231818 3.99163901,12.1098688 4.09258626,12.0836699 L4.76381591,11.9094651 L4.71705233,12.6013536 L4.71564827,12.6202815 L4.71512073,12.627293 C4.71819583,12.9464004 4.999059,13.2128182 5.3572381,13.2128182 C5.70483917,13.2128182 5.97942556,12.9636399 6,12.6587747 Z M7.00061767,12.6662869 C7.00020607,12.6518232 7,12.6370613 7,12.622 L7,12.622 Z M6.0012381,12.622 L6.0012381,12.622 Z" id="Shape"></path>
            </g>
        </g>
    </g>
</svg>