<?xml version="1.0" encoding="UTF-8"?>
<svg width="16px" height="16px" viewBox="0 0 16 16" version="1.1" xmlns="http://www.w3.org/2000/svg" xmlns:xlink="http://www.w3.org/1999/xlink">
    <!-- Generator: Sketch 55.2 (78181) - https://sketchapp.com -->
    <title>Revelian-empty</title>
    <desc>Created with Sketch.</desc>
    <g id="Symbols" stroke="none" stroke-width="1" fill="none" fill-rule="evenodd">
        <g id="Card/-Candidate-Profile-/Resourcer-View/-_-/-Milestones-/-Revelian-empty" stroke="#C6CDD9">
            <g id="org" transform="translate(1.000000, 2.000000)">
                <path d="M2.86804762,9.73522727 C1.60642857,9.73522727 0.583761905,8.75904545 0.583761905,7.55418182 C0.583761905,6.34931818 1.60642857,5.37431818 2.86804762,5.37431818" id="Shape"></path>
                <path d="M1.31547619,5.954 C1.10747619,5.60772727 0.989857143,5.20354545 0.989857143,4.77572727 C0.989857143,3.67604545 1.76985714,2.75127273 2.82904762,2.47413636 C2.78695238,2.32286364 2.76157143,2.20054545 2.76157143,2.03686364 C2.76157143,1.05122727 3.59790476,0.289545455 4.63047619,0.289545455 L5.8252381,0.289545455 C6.19914286,0.289545455 6.5012381,0.502863636 6.5012381,0.857409091 L6.5012381,11.6290909 L6.5012381,11.622 C6.5012381,12.2247273 5.98990476,12.7128182 5.3572381,12.7128182 C4.72580952,12.7128182 4.21509524,12.2247273 4.21509524,11.622 C4.21509524,11.6025 4.21695238,11.5859545 4.21819048,11.5676364 C4.08385714,11.6025 3.94333333,11.6231818 3.79785714,11.6231818 C2.938,11.6231818 2.23971429,10.9572273 2.23971429,10.1364545 C2.23971429,9.97395455 2.26880952,9.81795455 2.31709524,9.67140909" id="Shape"></path>
                <path d="M10.1319524,9.73522727 C11.3935714,9.73522727 12.4162381,8.75904545 12.4162381,7.55418182 C12.4162381,6.34931818 11.3935714,5.37431818 10.1319524,5.37431818" id="Shape"></path>
                <path d="M6.5,11.8122727 L6.5,11.622 C6.5,12.2247273 6.799,12.7128182 7.43042857,12.7128182 C8.06185714,12.7128182 8.35714286,12.2247273 8.35714286,11.622 L8.35714286,11.5676364 C9.28571429,11.6025 8.84309524,11.6231818 8.98857143,11.6231818 C9.85028571,11.6231818 10.6544286,10.9572273 10.6544286,10.1364545 C10.6544286,9.97395455 10.6804286,9.91013636 10.6296667,9.76240909" id="Shape"></path>
                <path d="M11.6845238,5.954 C11.8925238,5.60772727 12.0107619,5.20354545 12.0107619,4.77572727 C12.0107619,3.67604545 11.2307619,2.75127273 10.1709524,2.47413636 C10.2142857,2.32286364 10.2396667,2.20054545 10.2396667,2.03686364 C10.2396667,1.05122727 9.40209524,0.289545455 8.36952381,0.289545455 L7.1747619,0.289545455 C6.80085714,0.289545455 6.49938095,0.541272727 6.49938095,0.895227273" id="Shape"></path>
            </g>
        </g>
    </g>
</svg>