<svg version="1.2" xmlns="http://www.w3.org/2000/svg" viewBox="0 0 50 44" width="50" height="44"><defs><clipPath clipPathUnits="userSpaceOnUse" id="cp1"><path d="m-476-1092h1512v1876h-1512z"/></clipPath></defs><style>.a{fill:#fcc630}</style><g clip-path="url(#cp1)"><path fill-rule="evenodd" class="a" d="m50 11.4c0 0.4-0.1 0.9-0.3 1.3l-23.3 30.6c-0.3 0.4-0.8 0.7-1.4 0.7-0.5 0-1-0.3-1.4-0.7l-23.2-30.6c-0.3-0.4-0.5-0.9-0.4-1.4q0-0.4 0.2-0.9l5.2-9.5c0.3-0.6 0.9-0.9 1.5-0.9h36.9c0.7 0 1.3 0.3 1.6 1l4.5 9.5q0.1 0.4 0.1 0.9zm-19.2-7.6l2 4.4 2-4.4zm-10.6 5h9.6l-2.9-5h-3.8zm-5-5.1l2 4.5 2-4.5zm-10.7 5.1h9.7l-2.9-5.1h-3.4zm17 25.2l-5.7-21.4h-10.5zm9.1-21.3h-11.1l5.5 20.7zm14.2 0h-10.5l-5.6 21.3zm0.9-3.8l-3-5h-4l-2.9 5z"/></g></svg>