<svg version="1.2" xmlns="http://www.w3.org/2000/svg" viewBox="0 0 22 13" width="16" height="16"><defs><clipPath clipPathUnits="userSpaceOnUse" id="cp1"><path d="m-549-1044h1440v1340h-1440z"/></clipPath><clipPath clipPathUnits="userSpaceOnUse" id="cp2"><path d="m0.64 0.02h21.27v12h-21.27z"/></clipPath></defs><style>.a{fill:#7dd9ae}</style><g clip-path="url(#cp1)"><g clip-path="url(#cp2)"><path fill-rule="evenodd" class="a" d="m20.7 9.1l-3.4-1.2v-3.8l3.4-1.1zm-4.6 1.8h-14.3v-9.7h14.3v2.5zm-14.9-10.8c-0.3 0-0.6 0.3-0.6 0.6v10.8c0 0.4 0.3 0.6 0.6 0.6h15.5c0.3 0 0.6-0.2 0.6-0.6v-2.2l3.8 1.2q0.1 0.1 0.2 0.1 0.2 0 0.4-0.2 0.2-0.1 0.2-0.4v-7.7q0-0.3-0.2-0.5-0.3-0.2-0.6-0.1l-3.8 1.3v-2.3c0-0.3-0.3-0.6-0.6-0.6z"/></g></g></svg>